# xmcd
#
# Track frame offsets:
#	150
#	17928
#	40055
#	60488
#	79653
#	103525
#	129788
#	149783
#	165223
#	183335
#	205090
#	223013
#	245280
#	264793
#
# Disc length: 3847 seconds
#
# Revision: 4248717599
# Processed by: cddbd v1.5.2PL0 Copyright (c) Steve Scherf et al.
# Submitted via: EZCDAudioConverter 8.0.2.1
#
DISCID=b40f050e
DTITLE=Khánh Ly - Bản Tango Cuối Cùng
DYEAR=1989
DGENRE=Tango
TTITLE0=Tơ sầu
TTITLE1=Vườn thu
TTITLE2=Người thợ săn và đàn chim nhỏ
TTITLE3=Thu ca
TTITLE4=Hà Nội 49
TTITLE5=Tôi còn yêu tôi cứ yêu
TTITLE6=Vũ nữ thân gầyầy (La Cumparsita)
TTITLE7=Tiễn bước sang ngang
TTITLE8=Hai phương trời cách biệt
TTITLE9=Đường về
TTITLE10=Chờ một kiếp mai
TTITLE11=Sơn nữ ca
TTITLE12=Kiếp hoa
TTITLE13=Bên cầu biên giới
EXTD=
EXTT0=
EXTT1=
EXTT2=
EXTT3=
EXTT4=
EXTT5=
EXTT6=
EXTT7=
EXTT8=
EXTT9=
EXTT10=
EXTT11=
EXTT12=
EXTT13=
PLAYORDER=
